<svg xmlns="http://www.w3.org/2000/svg" version="1.1" xmlns:xlink="http://www.w3.org/1999/xlink" xmlns:svgjs="http://svgjs.dev/svgjs" width="1000" height="623" viewBox="0 0 1000 623"><g transform="matrix(1,0,0,1,-0.6060606060606233,0.2522267206477409)"><svg viewBox="0 0 396 247" data-background-color="#6936f5" preserveAspectRatio="xMidYMid meet" height="623" width="1000" xmlns="http://www.w3.org/2000/svg" xmlns:xlink="http://www.w3.org/1999/xlink"><g id="tight-bounds" transform="matrix(1,0,0,1,0.2400000000000091,-0.09999999999999432)"><svg viewBox="0 0 395.52 247.2" height="247.2" width="395.52"><g><svg></svg></g><g><svg viewBox="0 0 395.52 247.2" height="247.2" width="395.52"><g transform="matrix(1,0,0,1,39.55199999999999,93.00022342466843)"><svg viewBox="0 0 316.416 61.19955315066312" height="61.19955315066312" width="316.416"><g><svg viewBox="0 0 316.416 61.19955315066312" height="61.19955315066312" width="316.416"><g><svg viewBox="0 0 316.416 61.19955315066312" height="61.19955315066312" width="316.416"><g><svg viewBox="0 0 316.416 61.19955315066312" height="61.19955315066312" width="316.416"><g><svg viewBox="0 0 316.416 61.19955315066312" height="61.19955315066312" width="316.416"><g transform="matrix(1,0,0,1,0,0)"><svg width="316.416" viewBox="7.178677109273523 -18.87036838835443 259.41442402559915 50.17459943505392" height="61.19955315066312" data-palette-color="#ffffff"><path d="M37.615-12.12l-19.312 28.572c-0.123 0.192-0.241 0.374-0.353 0.548-0.112 0.174-0.241 0.327-0.385 0.459-0.146 0.139-0.313 0.253-0.503 0.342-0.197 0.094-0.432 0.153-0.703 0.176v0c-1.064 0.099-2.111 0.16-3.139 0.185-1.033 0.017-2.084 0.084-3.153 0.203v0c-0.202 0.018-0.378 0.028-0.528 0.029-0.15 0.002-0.288-0.011-0.411-0.037v0c-0.287-0.062-0.477-0.177-0.57-0.347-0.1-0.171-0.158-0.375-0.175-0.611v0l-1.178-34.036c-0.042-0.439-0.034-0.795 0.025-1.069v0c0.074-0.345 0.247-0.608 0.517-0.789 0.272-0.187 0.675-0.302 1.209-0.344 0.528-0.043 1.199-0.042 2.015 0.004 0.81 0.038 1.802 0.101 2.976 0.189v0c0.571 0.041 1.049 0.082 1.436 0.124 0.386 0.042 0.717 0.093 0.991 0.152v0c0.456 0.098 0.743 0.238 0.861 0.42 0.118 0.182 0.207 0.447 0.269 0.794v0l0.323 20.587 10.257-16.657c0.152-0.233 0.281-0.42 0.387-0.561 0.099-0.142 0.262-0.251 0.489-0.325 0.222-0.082 0.548-0.138 0.977-0.168 0.429-0.031 1.042-0.042 1.838-0.035v0c1.241 0.001 2.261 0.029 3.061 0.085 0.799 0.056 1.437 0.135 1.913 0.237v0c0.6 0.129 0.975 0.285 1.127 0.467 0.152 0.183 0.199 0.408 0.141 0.675v0c-0.011 0.114-0.055 0.223-0.132 0.329-0.084 0.105-0.174 0.239-0.27 0.402zM31.737 22.156v0l4.027-16.17c1.35-5.416 2.343-9.395 2.98-11.937 0.635-2.535 0.951-3.793 0.947-3.773v0c0.07-0.286 0.128-0.523 0.174-0.711 0.046-0.188 0.107-0.343 0.182-0.466 0.068-0.117 0.146-0.201 0.237-0.253 0.09-0.052 0.22-0.077 0.388-0.075v0l8.622-0.558c0.222-0.029 0.444-0.025 0.667 0.014v0c0.223 0.039 0.362 0.134 0.418 0.286 0.055 0.152 0.047 0.434-0.025 0.848v0c-0.282 0.966-0.531 1.877-0.747 2.732-0.208 0.85-0.403 1.662-0.585 2.436-0.175 0.775-0.338 1.521-0.489 2.24-0.159 0.723-0.327 1.439-0.503 2.145v0c-0.227 0.766-0.445 1.533-0.652 2.303-0.208 0.769-0.417 1.569-0.628 2.398-0.21 0.823-0.429 1.695-0.656 2.616-0.234 0.92-0.495 1.924-0.785 3.011v0l-3.238 12.43c-0.038 0.142-0.089 0.279-0.152 0.41-0.062 0.125-0.189 0.214-0.381 0.268v0c-0.02-0.003-0.12 0.01-0.301 0.04-0.189 0.035-0.437 0.08-0.744 0.135-0.301 0.056-0.654 0.107-1.062 0.151-0.4 0.046-0.825 0.077-1.274 0.094v0c-0.743 0.034-1.395 0.087-1.956 0.159-0.566 0.064-1.068 0.13-1.506 0.196-0.437 0.06-0.836 0.099-1.197 0.117-0.37 0.024-0.728 0.006-1.077-0.054v0c-0.243-0.042-0.432-0.142-0.567-0.301-0.136-0.152-0.175-0.396-0.117-0.731zM53.582 25.93l-4.386-0.54c-0.168-0.054-0.283-0.156-0.346-0.305-0.068-0.156-0.091-0.324-0.069-0.502v0c0.018-0.146 0.067-0.271 0.147-0.375v0l3.666-5.301c0.021-0.058 0.078-0.303 0.171-0.735 0.094-0.432 0.207-0.969 0.34-1.611 0.126-0.643 0.269-1.364 0.427-2.163 0.152-0.794 0.309-1.581 0.473-2.36 0.157-0.78 0.309-1.524 0.456-2.231 0.142-0.715 0.269-1.307 0.38-1.777v0c0.038-0.197 0.097-0.488 0.178-0.875 0.082-0.393 0.171-0.842 0.267-1.347 0.097-0.512 0.205-1.063 0.325-1.653 0.12-0.59 0.239-1.18 0.359-1.77v0l0.957-4.99c-0.441 0.04-0.904 0.083-1.386 0.131-0.476 0.049-0.941 0.086-1.394 0.111-0.453 0.025-0.879 0.043-1.277 0.054-0.404 0.004-0.748-0.011-1.032-0.046v0c-0.179-0.022-0.301-0.118-0.367-0.287-0.073-0.17-0.099-0.345-0.077-0.524v0c0.026-0.212 0.094-0.358 0.205-0.438v0l6.828-4.962c0.552-0.389 1.09-0.695 1.615-0.92 0.524-0.218 1.143-0.363 1.857-0.436 0.709-0.081 1.569-0.085 2.581-0.014 1.013 0.064 2.29 0.192 3.832 0.381v0c2.633 0.324 4.939 0.887 6.916 1.689 1.971 0.794 3.602 1.787 4.892 2.98v0c0.957 0.85 1.797 1.719 2.52 2.608 0.723 0.888 1.308 1.844 1.753 2.866 0.444 1.029 0.741 2.137 0.89 3.324 0.143 1.18 0.126 2.494-0.053 3.943v0c-0.338 2.746-1.049 5.137-2.133 7.173-1.077 2.037-2.422 3.769-4.035 5.195-1.613 1.427-3.431 2.576-5.453 3.449-2.029 0.878-4.159 1.533-6.388 1.964-2.229 0.424-4.51 0.647-6.843 0.668-2.327 0.022-4.592-0.102-6.796-0.374zM66.785-1.904v0l-0.647 2.882c-0.224 1-0.459 2.066-0.706 3.198-0.248 1.138-0.49 2.291-0.729 3.457-0.245 1.172-0.485 2.328-0.719 3.468-0.24 1.132-0.462 2.193-0.664 3.183-0.203 0.989-0.385 1.874-0.549 2.652-0.163 0.779-0.296 1.398-0.4 1.855v0l-0.158 0.716c1.945 0.24 3.628 0.128 5.049-0.335 1.413-0.457 2.608-1.187 3.584-2.188 0.969-0.996 1.733-2.211 2.293-3.647 0.559-1.429 0.944-2.997 1.154-4.704v0c0.15-1.217 0.126-2.416-0.071-3.596-0.198-1.173-0.555-2.312-1.07-3.416v0c-0.515-1.111-1.207-1.982-2.076-2.614-0.87-0.624-1.891-1.009-3.062-1.153v0c-0.192-0.024-0.406-0.006-0.641 0.052-0.236 0.058-0.431 0.121-0.588 0.19zM109.379 9.639v0c-0.081 0.222-0.22 0.534-0.419 0.935-0.205 0.401-0.441 0.851-0.705 1.349-0.272 0.504-0.559 1.044-0.863 1.619-0.303 0.569-0.602 1.145-0.899 1.728v0c-0.107 0.22-0.204 0.381-0.291 0.483-0.086 0.101-0.221 0.17-0.403 0.205-0.183 0.042-0.431 0.057-0.745 0.044-0.32-0.013-0.763-0.031-1.329-0.053v0l-3.368-0.13-1.142 7.373 12.436 0.776-0.059 0.948c-0.035 0.031-0.185 0.236-0.449 0.613-0.271 0.384-0.587 0.838-0.947 1.364-0.354 0.532-0.728 1.067-1.122 1.603-0.387 0.53-0.711 0.958-0.972 1.282v0c-0.185 0.282-0.385 0.504-0.602 0.664-0.223 0.153-0.464 0.262-0.722 0.326-0.251 0.064-0.527 0.097-0.828 0.098-0.3-0.005-0.627-0.019-0.979-0.041v0c-1.457-0.091-2.972-0.216-4.545-0.374-1.573-0.165-3.138-0.346-4.696-0.543-1.564-0.191-3.092-0.393-4.581-0.607-1.483-0.219-2.859-0.432-4.128-0.638v0c-0.112-0.027-0.211-0.1-0.297-0.219-0.079-0.119-0.115-0.248-0.106-0.387v0c-0.067-0.004-0.015-0.141 0.156-0.411 0.17-0.263 0.409-0.606 0.715-1.028 0.3-0.415 0.633-0.892 1.001-1.43 0.368-0.538 0.722-1.08 1.064-1.627v0l0.729-5.425c0.118-0.921 0.21-1.607 0.278-2.057 0.068-0.45 0.103-0.692 0.106-0.725v0c-0.964-0.074-1.683-0.165-2.157-0.275-0.474-0.11-0.702-0.304-0.685-0.583v0c0.008-0.126 0.143-0.362 0.405-0.707 0.255-0.338 0.566-0.726 0.934-1.164 0.368-0.445 0.758-0.905 1.168-1.38 0.41-0.475 0.775-0.913 1.094-1.314v0l1.113-8.207-0.07-0.004c-0.353-0.009-0.677-0.019-0.97-0.03-0.294-0.005-0.56-0.015-0.799-0.03v0c-0.778-0.049-1.331-0.13-1.658-0.244-0.321-0.107-0.473-0.283-0.458-0.53v0c0.007-0.113 0.118-0.34 0.333-0.68 0.215-0.341 0.483-0.735 0.805-1.182 0.315-0.441 0.651-0.905 1.009-1.39 0.358-0.492 0.677-0.946 0.956-1.363v0l1.612-2.384 10.14 0.632 12.002-0.133c0.02 0.001 0.063 0.011 0.128 0.028 0.073 0.011 0.151 0.039 0.235 0.085 0.077 0.045 0.15 0.116 0.218 0.214 0.067 0.104 0.095 0.246 0.083 0.426v0l-0.448 1.235c-0.136 0.352-0.295 0.72-0.479 1.102-0.185 0.389-0.39 0.787-0.616 1.194v0l-1.233 2.739c-0.131 0.272-0.274 0.477-0.429 0.614-0.155 0.131-0.469 0.191-0.943 0.182v0c-1.226-0.043-2.597-0.075-4.112-0.097-1.522-0.021-3.259-0.063-5.212-0.124v0c-0.081 0.222-0.125 0.403-0.134 0.542-0.009 0.14-0.042 0.402-0.099 0.786v0l-0.19 1.11c-0.065 0.51-0.15 1.063-0.254 1.657-0.097 0.595-0.223 1.325-0.377 2.191v0c0.827 0.025 1.634 0.045 2.421 0.061 0.781 0.015 1.498 0.03 2.152 0.044 0.647 0.014 1.207 0.029 1.68 0.045 0.48 0.017 0.816 0.031 1.009 0.043v0c0.133 0.008 0.277 0.064 0.431 0.167 0.153 0.11 0.222 0.301 0.204 0.574v0c-0.008 0.133-0.041 0.278-0.097 0.435zM125.204 13.449v0c-0.006 1.167 0.111 2.337 0.351 3.512 0.247 1.175 0.661 2.234 1.243 3.176 0.575 0.943 1.338 1.71 2.288 2.303 0.957 0.585 2.139 0.881 3.545 0.889v0c1.087-0.061 2.038-0.279 2.854-0.655 0.822-0.376 1.531-0.865 2.128-1.469 0.59-0.604 1.084-1.298 1.481-2.082 0.391-0.785 0.702-1.61 0.933-2.475 0.231-0.859 0.393-1.745 0.484-2.657 0.098-0.906 0.149-1.779 0.154-2.62v0c0.006-1.147-0.141-2.261-0.442-3.342-0.308-1.075-0.766-2.027-1.375-2.857-0.609-0.83-1.369-1.497-2.279-2.003-0.917-0.512-1.983-0.771-3.196-0.777v0c-0.953-0.005-1.818 0.17-2.593 0.526-0.769 0.349-1.454 0.819-2.058 1.41-0.603 0.583-1.12 1.261-1.55 2.031-0.437 0.764-0.798 1.556-1.083 2.375-0.291 0.818-0.505 1.634-0.643 2.446-0.144 0.819-0.225 1.575-0.242 2.269zM129.839 31.304v0c-2.427-0.013-4.594-0.478-6.503-1.395-1.902-0.917-3.509-2.152-4.82-3.706-1.312-1.554-2.316-3.349-3.012-5.386-0.696-2.03-1.038-4.182-1.025-6.455v0c0.014-2.54 0.389-4.881 1.127-7.024 0.731-2.143 1.748-4.041 3.051-5.694 1.302-1.653 2.853-3.045 4.652-4.175 1.793-1.13 3.761-1.967 5.903-2.509v0c0.193 0.001 0.344-0.151 0.453-0.458 0.108-0.306 0.203-0.646 0.285-1.018 0.082-0.373 0.18-0.712 0.296-1.019 0.115-0.306 0.276-0.459 0.482-0.457v0c3.145 0.343 5.969 0.912 8.471 1.705 2.509 0.8 4.633 1.935 6.372 3.404 1.739 1.463 3.069 3.31 3.991 5.542 0.921 2.232 1.374 4.951 1.356 8.157v0c-0.011 2.06-0.275 3.995-0.791 5.806-0.51 1.811-1.222 3.48-2.137 5.008-0.915 1.522-2.012 2.883-3.291 4.083-1.273 1.2-2.689 2.216-4.247 3.047-1.564 0.838-3.241 1.476-5.03 1.914-1.789 0.43-3.65 0.641-5.583 0.63zM153.745 13.461v0c-0.104-1.777 0.01-3.5 0.34-5.168 0.337-1.662 0.86-3.229 1.569-4.7 0.709-1.47 1.592-2.821 2.648-4.051 1.057-1.23 2.253-2.302 3.589-3.214 1.342-0.913 2.812-1.643 4.41-2.191 1.604-0.548 3.301-0.874 5.092-0.978v0c1.424-0.083 2.681-0.063 3.77 0.061 1.082 0.124 2.031 0.302 2.846 0.535 0.822 0.239 1.512 0.513 2.071 0.82 0.559 0.308 1.027 0.605 1.404 0.89v0c-0.02 0.001-0.027 0.058-0.02 0.172v0c0.014 0.246 0.06 0.691 0.138 1.334 0.078 0.643 0.169 1.359 0.275 2.147 0.099 0.789 0.196 1.591 0.291 2.408 0.087 0.81 0.148 1.514 0.184 2.113v0c0.006 0.1-0.021 0.212-0.081 0.335-0.06 0.124-0.219 0.193-0.479 0.208v0c-0.146 0.009-0.324-0.004-0.533-0.039v0c-0.345-0.08-0.788-0.278-1.327-0.594-0.539-0.316-1.163-0.643-1.87-0.982-0.708-0.339-1.496-0.634-2.366-0.884-0.863-0.25-1.797-0.346-2.801-0.287v0c-1.324 0.077-2.514 0.41-3.568 0.999-1.047 0.589-1.927 1.365-2.639 2.328-0.705 0.969-1.23 2.099-1.575 3.387-0.345 1.296-0.474 2.696-0.386 4.2v0c0.077 1.324 0.297 2.58 0.66 3.768 0.356 1.188 0.857 2.217 1.503 3.087 0.645 0.871 1.423 1.55 2.332 2.038 0.91 0.494 1.948 0.708 3.113 0.64v0c0.925-0.054 1.742-0.135 2.45-0.243 0.708-0.108 1.364-0.25 1.968-0.426 0.604-0.182 1.195-0.414 1.773-0.694 0.578-0.274 1.196-0.617 1.853-1.03v0c0.026-0.015 0.105-0.026 0.239-0.034v0c0.113-0.007 0.192 0.032 0.237 0.117 0.045 0.084 0.076 0.266 0.092 0.545v0l0.169 2.905c0.031 0.532 0.058 1.055 0.082 1.568 0.023 0.506 0.039 0.963 0.049 1.37 0.017 0.406 0.029 0.733 0.038 0.979 0.008 0.253 0.002 0.381-0.018 0.382v0c-0.712 0.509-1.485 0.938-2.319 1.287-0.834 0.349-1.692 0.636-2.574 0.861-0.889 0.219-1.784 0.385-2.686 0.498-0.902 0.106-1.776 0.184-2.621 0.233v0c-2.276 0.133-4.434-0.175-6.475-0.925-2.04-0.749-3.835-1.856-5.382-3.322-1.555-1.465-2.818-3.258-3.79-5.378-0.965-2.114-1.523-4.472-1.675-7.075zM185.041 26.133v0c0.156-0.441 0.315-0.937 0.479-1.486 0.163-0.55 0.304-1.144 0.423-1.783v0l0.467-1.666c-0.343-0.402-0.693-0.838-1.051-1.306-0.358-0.474-0.688-0.962-0.989-1.463-0.301-0.501-0.559-1.008-0.774-1.52-0.222-0.511-0.362-1.018-0.422-1.521v0c-0.003-0.026 0.12-0.068 0.368-0.124 0.248-0.056 0.561-0.113 0.936-0.171 0.375-0.065 0.784-0.126 1.227-0.186 0.443-0.059 0.852-0.114 1.229-0.166 0.377-0.051 0.687-0.098 0.93-0.14 0.251-0.036 0.376-0.055 0.376-0.055v0c0.256-1.01 0.508-1.97 0.757-2.879 0.255-0.91 0.505-1.829 0.751-2.757 0.253-0.923 0.5-1.869 0.741-2.837 0.248-0.969 0.484-2.004 0.71-3.105v0c0.439-2.073 0.89-3.902 1.353-5.488 0.463-1.592 0.898-3.074 1.307-4.444v0c0.047-0.167 0.139-0.325 0.276-0.476 0.136-0.157 0.287-0.296 0.454-0.416 0.168-0.114 0.33-0.214 0.488-0.3 0.164-0.087 0.291-0.152 0.38-0.196v0c0.065-0.021 0.301-0.12 0.71-0.295 0.415-0.183 0.885-0.38 1.41-0.59 0.532-0.211 1.06-0.404 1.583-0.581 0.53-0.177 0.953-0.284 1.271-0.321v0l0.437-0.052c0.258-0.031 0.511 0.003 0.757 0.102 0.246 0.092 0.429 0.308 0.55 0.649v0c1.009 1.888 2.089 3.952 3.241 6.192 1.157 2.233 2.32 4.706 3.487 7.421v0c0.629 1.456 1.242 2.834 1.839 4.133 0.591 1.306 1.181 2.576 1.771 3.808 0.582 1.233 1.172 2.469 1.768 3.708 0.596 1.232 1.206 2.502 1.831 3.811v0c0.215 0.565 0.418 1.008 0.611 1.327 0.199 0.319 0.373 0.567 0.521 0.744 0.149 0.177 0.271 0.304 0.367 0.379 0.09 0.083 0.141 0.171 0.152 0.264v0c0.012 0.099-0.129 0.217-0.422 0.352v0l-4.993 2.304c-0.368 0.185-0.745 0.374-1.131 0.567-0.387 0.193-0.749 0.367-1.087 0.521-0.338 0.154-0.634 0.283-0.89 0.388-0.263 0.105-0.45 0.164-0.563 0.177v0l-0.139 0.017c-0.225 0.027-0.396-0.024-0.512-0.151-0.108-0.121-0.187-0.246-0.235-0.375v0c-0.222-0.511-0.44-0.968-0.656-1.373-0.21-0.411-0.416-0.82-0.619-1.225-0.202-0.406-0.408-0.841-0.618-1.307-0.21-0.465-0.426-1.02-0.65-1.665v0c-0.043-0.076-0.14-0.131-0.292-0.167-0.153-0.042-0.33-0.068-0.533-0.077-0.203-0.01-0.42-0.004-0.652 0.017-0.226 0.02-0.435 0.041-0.627 0.064v0c-0.609 0.072-1.102 0.134-1.478 0.185-0.377 0.051-0.71 0.101-1 0.149-0.291 0.041-0.568 0.081-0.832 0.118-0.264 0.038-0.588 0.08-0.972 0.125v0c-0.463 0.055-0.944 0.108-1.441 0.161-0.491 0.051-0.936 0.091-1.335 0.118v0l-1.385 0.124c-0.281 1.201-0.569 2.337-0.866 3.405-0.297 1.062-0.624 2.158-0.98 3.288v0c-0.017 0.136-0.081 0.251-0.19 0.345-0.116 0.094-0.237 0.149-0.364 0.164v0c-0.099 0.012-0.156 0.012-0.171 0v0c-1.629-0.378-3.006-0.778-4.13-1.202-1.124-0.424-2.111-0.844-2.959-1.261zM198.728 2.519v0c-0.215 1.475-0.442 2.818-0.681 4.028-0.239 1.21-0.465 2.284-0.675 3.222-0.204 0.937-0.382 1.73-0.534 2.379-0.152 0.642-0.258 1.138-0.317 1.488v0l0.025 0.218c0.012 0.099 0.013 0.166 0.004 0.201v0l5.79-0.686c-0.272-0.767-0.555-1.542-0.85-2.326-0.3-0.777-0.599-1.597-0.896-2.461-0.296-0.858-0.6-1.782-0.912-2.772-0.313-0.997-0.631-2.094-0.954-3.291zM227.973-13.043v0c0.045 0.385 0.094 0.867 0.146 1.446 0.051 0.573 0.1 1.18 0.148 1.821 0.055 0.64 0.102 1.288 0.14 1.945 0.038 0.656 0.074 1.262 0.108 1.817 0.041 0.554 0.078 1.028 0.111 1.422 0.035 0.4 0.061 0.656 0.08 0.767v0c0.103 0.997 0.19 1.925 0.263 2.786 0.073 0.86 0.14 1.711 0.203 2.552 0.063 0.841 0.127 1.713 0.194 2.615 0.06 0.903 0.135 1.898 0.226 2.985 0.085 1.088 0.179 2.296 0.284 3.624 0.105 1.328 0.236 2.848 0.394 4.558v0l9.744-2.7c0.439-0.122 0.803-0.208 1.093-0.258v0c0.348-0.06 0.578-0.041 0.689 0.055 0.105 0.097 0.178 0.267 0.219 0.51v0c0.004 0.026 0.002 0.071-0.008 0.134-0.004 0.055-0.018 0.169-0.043 0.342-0.032 0.168-0.075 0.412-0.128 0.732-0.053 0.32-0.119 0.768-0.197 1.342v0l-0.263 1.668c-0.083 0.542-0.169 1.03-0.257 1.464-0.082 0.433-0.209 0.817-0.381 1.151-0.173 0.334-0.412 0.615-0.719 0.843-0.305 0.235-0.716 0.42-1.233 0.556v0c-0.33 0.09-0.778 0.197-1.346 0.321-0.574 0.125-1.234 0.262-1.979 0.41-0.745 0.154-1.548 0.322-2.41 0.503-0.868 0.182-1.752 0.374-2.651 0.575v0c-0.888 0.186-1.788 0.36-2.7 0.522-0.906 0.162-1.764 0.322-2.576 0.481-0.813 0.152-1.559 0.294-2.241 0.424-0.687 0.138-1.252 0.251-1.697 0.34v0c-0.414 0.071-0.718 0.092-0.912 0.065-0.195-0.034-0.305-0.124-0.33-0.268v0c-0.03-0.177-0.017-0.437 0.04-0.778 0.056-0.348 0.137-0.74 0.245-1.178 0.101-0.437 0.223-0.894 0.364-1.371 0.142-0.477 0.282-0.941 0.422-1.391v0l-0.82-8.656c-0.117-1.475-0.241-2.975-0.374-4.501-0.125-1.521-0.261-2.992-0.409-4.414v0l-0.68-6.407c-0.159-1.522-0.279-2.624-0.362-3.307-0.083-0.682-0.13-1.057-0.141-1.122v0c-0.017-0.295-0.035-0.539-0.054-0.731-0.019-0.193-0.017-0.356 0.008-0.488 0.017-0.138 0.059-0.247 0.127-0.326 0.069-0.073 0.179-0.139 0.331-0.199v0l8.068-3.428c0.167-0.089 0.376-0.156 0.625-0.199v0c0.177-0.03 0.311-0.002 0.4 0.084 0.09 0.093 0.16 0.284 0.21 0.573v0c0.006 0.033 0.01 0.076 0.012 0.13 0.004 0.06 0.009 0.113 0.017 0.159zM251.411-17.786v0c0.062 0.382 0.132 0.862 0.21 1.439 0.076 0.57 0.152 1.174 0.229 1.812 0.084 0.637 0.159 1.282 0.226 1.936 0.067 0.654 0.13 1.258 0.188 1.812 0.065 0.552 0.123 1.024 0.174 1.415 0.052 0.398 0.09 0.652 0.114 0.763v0c0.147 0.991 0.276 1.915 0.387 2.771 0.111 0.856 0.216 1.703 0.316 2.541 0.1 0.838 0.203 1.706 0.309 2.603 0.1 0.899 0.219 1.89 0.358 2.972 0.133 1.083 0.281 2.286 0.445 3.608 0.164 1.322 0.362 2.834 0.595 4.537v0l9.615-3.13c0.433-0.142 0.793-0.244 1.08-0.306v0c0.345-0.075 0.576-0.067 0.691 0.024 0.109 0.092 0.189 0.259 0.241 0.5v0c0.006 0.026 0.005 0.071-0.001 0.134-0.002 0.055-0.011 0.17-0.028 0.343-0.025 0.169-0.057 0.415-0.096 0.738-0.039 0.322-0.085 0.772-0.137 1.349v0l-0.189 1.678c-0.059 0.545-0.123 1.036-0.191 1.475-0.062 0.436-0.172 0.825-0.331 1.166-0.158 0.341-0.385 0.633-0.68 0.874-0.294 0.248-0.697 0.451-1.208 0.61v0c-0.325 0.105-0.768 0.232-1.329 0.381-0.568 0.15-1.221 0.316-1.96 0.496-0.737 0.187-1.532 0.39-2.385 0.61-0.859 0.221-1.734 0.451-2.623 0.692v0c-0.879 0.225-1.771 0.439-2.674 0.641-0.898 0.202-1.748 0.4-2.552 0.595-0.805 0.188-1.545 0.362-2.22 0.522-0.68 0.168-1.24 0.306-1.68 0.416v0c-0.41 0.089-0.713 0.124-0.909 0.105-0.197-0.026-0.31-0.11-0.341-0.253v0c-0.038-0.176-0.036-0.435 0.005-0.779 0.04-0.35 0.104-0.746 0.193-1.188 0.082-0.441 0.183-0.903 0.303-1.386 0.12-0.483 0.24-0.953 0.359-1.408v0l-1.203-8.611c-0.182-1.468-0.373-2.962-0.573-4.48-0.192-1.514-0.394-2.978-0.604-4.392v0l-0.963-6.37c-0.226-1.513-0.395-2.609-0.508-3.287-0.113-0.678-0.177-1.05-0.191-1.115v0c-0.03-0.294-0.058-0.536-0.086-0.728-0.028-0.192-0.033-0.354-0.014-0.489 0.011-0.139 0.048-0.249 0.112-0.331 0.065-0.076 0.173-0.147 0.322-0.213v0l7.908-3.783c0.163-0.097 0.369-0.172 0.616-0.225v0c0.176-0.038 0.31-0.016 0.403 0.066 0.094 0.089 0.173 0.276 0.235 0.563v0c0.007 0.033 0.013 0.076 0.018 0.129 0.006 0.06 0.014 0.113 0.024 0.158z" opacity="1" transform="matrix(1,0,0,1,0,0)" fill="#ffffff" class="undefined-text-0" data-fill-palette-color="primary" id="text-0"></path></svg></g></svg></g></svg></g></svg></g><g></g></svg></g></svg></g><g mask="url(#bd30a6f4-b0ea-4aed-b7a1-2ed5b4cbd8a7)"><g transform="matrix(2.715253091179035, 0, 0, 2.715253091179035, 75.15948933963006, 1)"><svg xmlns="http://www.w3.org/2000/svg" xmlns:xlink="http://www.w3.org/1999/xlink" version="1.0" x="0" y="0" viewBox="4.667731951646829 4.685959745359883 90.30503348557724 90.30465734357294" enable-background="new 0 0 100 100" xml:space="preserve" height="90.30465734357294" width="90.30503348557724" class="icon-none" data-fill-palette-color="accent" id="none"><path d="M17.504 35.743c-1.334 8.611 0.522 17.134 5.093 23.382 3.514 4.801 8.413 7.905 13.796 8.739 5.677 0.88 11.253-0.429 15.703-3.685 1.248-0.912 2.36-1.946 3.326-3.076-2.222 0.978-4.814 1.267-7.626 0.831-11.717-1.816-19.673-13.464-17.735-25.964 0.934-6.03 4.384-11.497 9.713-15.397 6.768-4.952 15.953-6.97 25.201-5.537 7.474 1.158 17.67 5.964 25.56 15.213 0 0-22.835-39.421-56.115-20.356C23.689 16.04 18.653 28.323 17.504 35.743z" fill="#b19dd0" data-fill-palette-color="accent"></path><path d="M82.544 65.256c1.659-8.555 0.125-17.141-4.207-23.557-3.331-4.931-8.109-8.217-13.457-9.253-5.639-1.094-11.261 0.004-15.83 3.091-1.282 0.863-2.431 1.854-3.44 2.947 2.257-0.894 4.859-1.084 7.652-0.543 11.64 2.257 19.151 14.196 16.744 26.616-1.161 5.989-4.815 11.324-10.288 15.019-6.949 4.692-16.205 6.364-25.393 4.582C26.902 82.719 16.894 77.532 9.358 67.992c0 0 21.331 40.255 55.307 22.457C75.621 84.712 81.115 72.628 82.544 65.256z" fill="#b19dd0" data-fill-palette-color="accent"></path><path d="M35.726 82.88c8.611 1.334 17.133-0.522 23.381-5.094 4.801-3.514 7.905-8.413 8.74-13.796 0.879-5.676-0.429-11.253-3.686-15.702-0.912-1.248-1.946-2.36-3.076-3.327 0.979 2.222 1.267 4.815 0.831 7.626-1.816 11.717-13.463 19.673-25.965 17.736-6.029-0.934-11.497-4.385-15.395-9.713-4.952-6.768-6.971-15.954-5.538-25.202 1.158-7.474 5.964-17.67 15.213-25.559 0 0-39.421 22.835-20.356 56.115C16.022 76.695 28.305 81.73 35.726 82.88z" fill="#b19dd0" data-fill-palette-color="accent"></path><path d="M90.432 35.718c-5.738-10.955-17.822-16.45-25.194-17.879-8.554-1.659-17.141-0.125-23.557 4.208-4.931 3.331-8.217 8.108-9.254 13.456-1.094 5.64 0.004 11.261 3.092 15.83 0.863 1.282 1.854 2.431 2.946 3.441-0.894-2.257-1.084-4.859-0.542-7.652 2.257-11.64 14.196-19.151 26.615-16.744 5.99 1.161 11.324 4.816 15.019 10.289 4.693 6.949 6.363 16.204 4.583 25.392-1.44 7.423-6.626 17.431-16.167 24.966C67.973 91.025 108.228 69.694 90.432 35.718z" fill="#b19dd0" data-fill-palette-color="accent"></path></svg></g></g></svg></g><defs><mask id="bd30a6f4-b0ea-4aed-b7a1-2ed5b4cbd8a7"><rect width="640" height="400" fill="white"></rect><rect width="348.05760000000004" height="100.14997191708244" fill="black" x="145.97119999999998" y="149.92501404145878" id="transform-me" transform="matrix(1,0,0,1,-122.24000000000001,-76.4)"></rect></mask></defs></svg><rect width="395.52" height="247.2" fill="none" stroke="none" visibility="hidden"></rect></g></svg></g></svg>